0
SECTION
2
HEADER
9
$INSUNITS
70
1
0
ENDSEC
0
SECTION
2
TABLES
0
ENDSEC
0
SECTION
2
ENTITIES
999
FD-16 frame drum hoop plan. Units are inches. Prototype layout derived from family-spec.csv; verify before fabrication.
0
CIRCLE
8
HOOP_OUTER
10
0
20
0
30
0
40
8.0
0
CIRCLE
8
HOOP_INNER
10
0
20
0
30
0
40
7.625
0
CIRCLE
8
HEAD_SEAT_REFERENCE
10
0
20
0
30
0
40
7.75
0
LINE
8
DATUM
10
-8.75
20
0
30
0
11
8.75
21
0
31
0
0
LINE
8
DATUM
10
0
20
-8.75
30
0
11
0
21
8.75
31
0
0
LINE
8
STAVE_REFERENCE
10
0
20
0
30
0
11
8.0
21
0
31
0
0
LINE
8
STAVE_REFERENCE
10
0
20
0
30
0
11
7.846
21
1.561
31
0
0
TEXT
8
NOTES
10
-8.5
20
-10.0
30
0
40
0.25
1
FD-16 OD 16.0 in / ID 15.25 in / wall 0.375 in / head seat ref 15.5 in
0
TEXT
8
NOTES
10
-8.5
20
-10.5
30
0
40
0.25
1
First-prototype assumptions; verify units, material, fixture, and head tension before cutting.
0
ENDSEC
0
EOF
